<svg width="914" height="915" xmlns="http://www.w3.org/2000/svg" xmlns:xlink="http://www.w3.org/1999/xlink" overflow="hidden"><defs><clipPath id="clip0"><rect x="1156" y="668" width="914" height="915"/></clipPath></defs><g clip-path="url(#clip0)" transform="translate(-1156 -668)"><path d="M1158.5 1125.5C1158.5 874.211 1361.99 670.5 1613 670.5 1864.01 670.5 2067.5 874.211 2067.5 1125.5 2067.5 1376.79 1864.01 1580.5 1613 1580.5 1361.99 1580.5 1158.5 1376.79 1158.5 1125.5Z" stroke="#2F528F" stroke-width="4.58333" stroke-miterlimit="8" fill="#92D050" fill-rule="evenodd"/><path d="M1223.5 1126C1223.5 910.885 1398.11 736.5 1613.5 736.5 1828.89 736.5 2003.5 910.885 2003.5 1126 2003.5 1341.11 1828.89 1515.5 1613.5 1515.5 1398.11 1515.5 1223.5 1341.11 1223.5 1126Z" stroke="#2F528F" stroke-width="4.58333" stroke-miterlimit="8" fill="#FFC000" fill-rule="evenodd"/><path d="M1631.19 739.926 1999 1143 1595.92 1510.81 1228.12 1107.73Z" stroke="#2F528F" stroke-width="4.58333" stroke-miterlimit="8" fill="#8FAADC" fill-rule="evenodd"/><path d="M1839.11 972.567 1761.85 1354.6 1379.82 1277.33 1457.08 895.304Z" stroke="#2F528F" stroke-width="4.58333" stroke-miterlimit="8" fill="#00B0F0" fill-rule="evenodd"/></g></svg>